<?xml version="1.0" encoding="UTF-8"?>
<!DOCTYPE svg PUBLIC "-//W3C//DTD SVG 1.1//EN" "http://www.w3.org/Graphics/SVG/1.1/DTD/svg11.dtd">
<!-- Creator: CorelDRAW 2017 -->
<svg xmlns="http://www.w3.org/2000/svg" xml:space="preserve" width="32.6812mm" height="17.5556mm" version="1.1" style="shape-rendering:geometricPrecision; text-rendering:geometricPrecision; image-rendering:optimizeQuality; fill-rule:evenodd; clip-rule:evenodd"
viewBox="0 0 807.84 433.95"
 xmlns:xlink="http://www.w3.org/1999/xlink">
 <defs>
  <style type="text/css">
   <![CDATA[
    .fil0 {fill:black;fill-rule:nonzero}
    .fil1 {fill:mediumpurple;fill-rule:nonzero}
   ]]>
  </style>
 </defs>
 <g id="Camada_x0020_1">
  <metadata id="CorelCorpID_0Corel-Layer"/>
  <path class="fil0" d="M296.82 165.89l3.99 36.11 81.02 0 0 -111.39 -95.26 0.21 0 35.8 3.5 0 0 5.64c0,4.51 -1.85,6.75 -5.67,6.75 -3.57,0 -5.42,-2.24 -5.42,-6.75l0 -59.6c0,-4.31 1.54,-6.44 4.62,-6.44 2.97,0 4.41,1.71 4.41,5.21l0 11.8 93.82 0 0 -12.01c0,-22.57 -8.08,-40.11 -24.18,-52.53 -16.2,-12.42 -40.21,-18.69 -71.99,-18.69 -33.56,0 -58.65,8.01 -75.28,24.01 -16.73,16.03 -25.02,41.05 -25.02,75.1l0 26.67c0,26.36 5.32,46.27 16.1,59.81 10.67,13.61 25.13,20.4 43.26,20.4 14.98,0 26.28,-3.29 33.95,-9.73 7.59,-6.48 12.53,-16.62 14.77,-30.38l3.4 0zm277.58 -43.26c9.84,-11.09 14.77,-27.09 14.77,-47.88l0 -5.46c0,-42.94 -24.22,-65.72 -72.9,-65.72l-117.59 0 0 198.43 91.34 0 0 -49.13 4.83 0 7.39 49.13 92.78 0 -20.62 -79.37zm-82.31 -52.91c3.36,0 6.96,3.6 6.96,10.25l0 7.38c0,8.61 -3.39,12.6 -6.75,12.6l-2.27 0 0 -30.24 2.06 0zm313.77 132.28l-28.8 -198.43 -148.84 0 -30.66 198.43 95.33 0 1.02 -18.27 14.98 0 1.01 18.27 95.96 0zm-105.79 -117.2l-0.6 -15.3 3.89 0 0.31 15.3 2.24 43.68 -8.61 0 2.77 -43.68zm-357.93 146.28l-154.62 0.22 0 202.66 95.15 0 0.97 -75.31 54.22 0 0 -51.22 -54.22 0.22 0 -8.58 58.51 0 0 -67.98zm14.11 202.88l93.29 0 0 -202.66 -93.29 0 0 202.66zm107.19 -202.66l0 76.13 39.07 0 0 126.53 93.29 0 0 -126.75 38.35 0 0 -75.92 -170.71 0zm278.14 126.32l63.23 0 0 -51.11 -63.23 0 0 -7.44 65.41 0 0 -67.77 -158.7 0 0 202.66 159.55 0 0 -67.77 -66.27 0 0 -8.58z"/>
  <path class="fil1" d="M121.36 347.98l26.42 -2.92 0 -59.27 -81.5 0 0.15 69.69 26.19 0 0 -2.56 4.12 0c3.3,0 4.94,1.35 4.94,4.15 0,2.61 -1.64,3.97 -4.94,3.97l-43.6 0c-3.15,0 -4.71,-1.13 -4.71,-3.38 0,-2.18 1.25,-3.23 3.81,-3.23l8.63 0 0 -68.64 -8.78 0c-16.51,0 -29.34,5.92 -38.43,17.69 -9.09,11.86 -13.67,29.42 -13.67,52.67 0,24.55 5.86,42.91 17.56,55.07 11.73,12.24 30.03,18.31 54.95,18.31l19.51 0c19.28,0 33.85,-3.89 43.76,-11.78 9.96,-7.81 14.93,-18.38 14.93,-31.64 0,-10.96 -2.41,-19.23 -7.12,-24.84 -4.74,-5.55 -12.16,-9.17 -22.22,-10.8l0 -2.48zm-28.27 -141.35l0 -45.29 -36.61 0 0 45.29 -5.32 0 0 -46.85 -48.55 0 0 113.68 145.17 0 0 -114.3 -48.55 0 0 47.47 -6.15 0zm-93.09 -131.16c0,47.5 22.66,72.92 68.8,72.92l12.44 0c46.27,0 69.46,-25.06 69.46,-72.77 0,-49.13 -23.2,-73.74 -69.46,-73.74l-12.44 0c-45.83,0 -68.8,24.53 -68.8,73.59zm97.65 -3.66c3.17,0 4.74,1.26 4.81,3.81 -0.08,2.18 -1.64,3.23 -4.81,3.23l-44.55 0c-3.15,0 -4.71,-1.13 -4.71,-3.38 0,-2.46 1.56,-3.66 4.71,-3.66l44.55 0z"/>
 </g>
</svg>
